<?xml version="1.0" encoding="UTF-8" standalone="no"?>
<svg
   xmlns:dc="http://purl.org/dc/elements/1.1/"
   xmlns:cc="http://creativecommons.org/ns#"
   xmlns:rdf="http://www.w3.org/1999/02/22-rdf-syntax-ns#"
   xmlns:svg="http://www.w3.org/2000/svg"
   xmlns="http://www.w3.org/2000/svg"
   xmlns:sodipodi="http://sodipodi.sourceforge.net/DTD/sodipodi-0.dtd"
   xmlns:inkscape="http://www.inkscape.org/namespaces/inkscape"
   id="Bold"
   viewBox="0 0 24 24"
   version="1.1"
   sodipodi:docname="fi-br-angle-small-down.svg"
   inkscape:version="0.92.3 (2405546, 2018-03-11)">
  <metadata
     id="metadata11">
    <rdf:RDF>
      <cc:Work
         rdf:about="">
        <dc:format>image/svg+xml</dc:format>
        <dc:type
           rdf:resource="http://purl.org/dc/dcmitype/StillImage" />
      </cc:Work>
    </rdf:RDF>
  </metadata>
  <defs
     id="defs9" />
  <sodipodi:namedview
     pagecolor="#ffffff"
     bordercolor="#666666"
     borderopacity="1"
     objecttolerance="10"
     gridtolerance="10"
     guidetolerance="10"
     inkscape:pageopacity="0"
     inkscape:pageshadow="2"
     inkscape:window-width="1920"
     inkscape:window-height="1028"
     id="namedview7"
     showgrid="false"
     inkscape:zoom="9.8333333"
     inkscape:cx="12"
     inkscape:cy="12"
     inkscape:window-x="0"
     inkscape:window-y="28"
     inkscape:window-maximized="1"
     inkscape:current-layer="Bold" />
  <title
     id="title2">163 arrow small down</title>
  <path
     d="M19.061,7.854a1.5,1.5,0,0,0-2.122,0l-4.586,4.585a.5.5,0,0,1-.707,0L7.061,7.854A1.5,1.5,0,0,0,4.939,9.975l4.586,4.586a3.5,3.5,0,0,0,4.95,0l4.586-4.586A1.5,1.5,0,0,0,19.061,7.854Z"
     id="path4" />
  <path
     style="fill:#ffffff;stroke-width:0.10169491"
     d="M 11.113359,15.403815 C 10.810283,15.319012 10.4213,15.161587 10.248953,15.05398 10.076605,14.946373 8.734322,13.652626 7.2661017,12.178987 L 4.5966102,9.4996419 V 9.0159573 c 0,-1.0781282 0.7927017,-1.7396559 1.7740525,-1.4804876 0.3455043,0.091245 0.8169078,0.5116015 2.9065496,2.5918043 1.9143937,1.905746 2.5528267,2.482895 2.7465407,2.482895 0.194132,0 0.827231,-0.575532 2.743127,-2.493702 1.913628,-1.9158987 2.573961,-2.516283 2.849886,-2.5911574 0.761586,-0.2066627 1.644676,0.3297082 1.786371,1.0850051 0.141989,0.7568701 0.0021,0.9439065 -2.777894,3.7147573 -2.155634,2.148525 -2.722866,2.659349 -3.189911,2.872696 -0.72491,0.331139 -1.598012,0.408617 -2.321973,0.206047 z"
     id="path13"
     inkscape:connector-curvature="0" />
</svg>
