<?xml version="1.0" encoding="UTF-8" standalone="no"?>
<svg
   xmlns:dc="http://purl.org/dc/elements/1.1/"
   xmlns:cc="http://creativecommons.org/ns#"
   xmlns:rdf="http://www.w3.org/1999/02/22-rdf-syntax-ns#"
   xmlns:svg="http://www.w3.org/2000/svg"
   xmlns="http://www.w3.org/2000/svg"
   xmlns:sodipodi="http://sodipodi.sourceforge.net/DTD/sodipodi-0.dtd"
   xmlns:inkscape="http://www.inkscape.org/namespaces/inkscape"
   id="Bold"
   viewBox="0 0 24 24"
   version="1.1"
   sodipodi:docname="fi-br-angle-double-small-left.svg"
   inkscape:version="0.92.3 (2405546, 2018-03-11)">
  <metadata
     id="metadata13">
    <rdf:RDF>
      <cc:Work
         rdf:about="">
        <dc:format>image/svg+xml</dc:format>
        <dc:type
           rdf:resource="http://purl.org/dc/dcmitype/StillImage" />
      </cc:Work>
    </rdf:RDF>
  </metadata>
  <defs
     id="defs11" />
  <sodipodi:namedview
     pagecolor="#ffffff"
     bordercolor="#666666"
     borderopacity="1"
     objecttolerance="10"
     gridtolerance="10"
     guidetolerance="10"
     inkscape:pageopacity="0"
     inkscape:pageshadow="2"
     inkscape:window-width="1920"
     inkscape:window-height="1028"
     id="namedview9"
     showgrid="false"
     inkscape:zoom="27.812867"
     inkscape:cx="7.5582251"
     inkscape:cy="11.707457"
     inkscape:window-x="0"
     inkscape:window-y="28"
     inkscape:window-maximized="1"
     inkscape:current-layer="Bold" />
  <title
     id="title2">150 double arrow left small</title>
  <path
     d="M10.482,19.5a1.5,1.5,0,0,1-1.06-.439L4.836,14.475a3.505,3.505,0,0,1,0-4.95L9.422,4.939a1.5,1.5,0,0,1,2.121,2.122L6.957,11.646a.5.5,0,0,0,0,.708l4.586,4.585A1.5,1.5,0,0,1,10.482,19.5Z"
     id="path4" />
  <path
     d="M17.482,19.5a1.5,1.5,0,0,1-1.06-.439l-6-6a1.5,1.5,0,0,1,0-2.122l6-6a1.5,1.5,0,1,1,2.121,2.122L13.6,12l4.939,4.939A1.5,1.5,0,0,1,17.482,19.5Z"
     id="path6" />
  <path
     style="fill:#ffffff;stroke-width:0.03595458"
     d="M 10.140402,19.445762 C 9.7525707,19.348339 9.6961942,19.29717 7.0409973,16.632656 4.2996902,13.88173 4.350446,13.939022 4.0878818,13.299272 3.9013141,12.844691 3.8435341,12.519046 3.84865,11.950975 3.8536384,11.397062 3.9096163,11.116629 4.1124564,10.629386 4.3616538,10.030787 4.4211965,9.964106 7.0941976,7.2902048 9.4380443,4.9455686 9.6127724,4.7790196 9.8477759,4.6655203 10.083893,4.5514834 10.121027,4.544331 10.476981,4.544331 c 0.350824,0 0.395869,0.00833 0.62064,0.1148078 0.313683,0.1485934 0.572876,0.4077857 0.721469,0.7214687 0.10643,0.2246752 0.114808,0.2699099 0.114808,0.6198841 0,0.6746646 0.168986,0.4641852 -2.6268582,3.271867 -1.3291859,1.3348134 -2.4346945,2.4622744 -2.4566858,2.5054684 -0.055906,0.109806 -0.049837,0.355934 0.011627,0.471559 0.028386,0.0534 1.1055018,1.148761 2.3935902,2.434137 1.2880888,1.285376 2.3903088,2.406085 2.4493778,2.490463 0.23438,0.334803 0.313395,0.850141 0.192677,1.256643 -0.12195,0.410649 -0.482964,0.79673 -0.890666,0.952509 -0.215582,0.08237 -0.660069,0.114494 -0.866558,0.06262 z"
     id="path3718"
     inkscape:connector-curvature="0" />
  <path
     style="fill:#ffffff;stroke-width:0.03595458"
     d="m 17.094252,19.428143 c -0.108283,-0.03037 -0.270079,-0.09694 -0.359546,-0.147928 -0.100936,-0.05752 -1.358288,-1.288429 -3.313245,-3.243561 -3.6417984,-3.642124 -3.393156,-3.346743 -3.393156,-4.030991 0,-0.352928 0.0079,-0.395146 0.118455,-0.629961 0.112829,-0.239728 0.26909,-0.402317 3.289844,-3.4230716 3.020755,-3.0207546 3.183344,-3.1770155 3.423072,-3.2898442 0.234715,-0.1104697 0.277132,-0.1184552 0.629205,-0.1184552 0.332703,0 0.401,0.01116 0.575273,0.094001 0.894523,0.4252143 1.172399,1.4829688 0.592309,2.2546598 -0.08886,0.1182134 -1.261618,1.307234 -2.606123,2.6422675 -1.344505,1.3350337 -2.444554,2.4406377 -2.444554,2.4568977 0,0.01626 1.138637,1.170484 2.530304,2.564943 1.537036,1.54012 2.56683,2.599241 2.623353,2.698062 0.426848,0.746282 0.135306,1.686158 -0.642233,2.070439 -0.314772,0.155568 -0.697249,0.193908 -1.022958,0.102542 z"
     id="path3720"
     inkscape:connector-curvature="0" />
</svg>
