<?xml version="1.0" encoding="UTF-8" standalone="no"?>
<svg
   xmlns:dc="http://purl.org/dc/elements/1.1/"
   xmlns:cc="http://creativecommons.org/ns#"
   xmlns:rdf="http://www.w3.org/1999/02/22-rdf-syntax-ns#"
   xmlns:svg="http://www.w3.org/2000/svg"
   xmlns="http://www.w3.org/2000/svg"
   xmlns:sodipodi="http://sodipodi.sourceforge.net/DTD/sodipodi-0.dtd"
   xmlns:inkscape="http://www.inkscape.org/namespaces/inkscape"
   id="Bold"
   viewBox="0 0 24 24"
   version="1.1"
   sodipodi:docname="fi-br-angle-double-small-right.svg"
   inkscape:version="0.92.3 (2405546, 2018-03-11)">
  <metadata
     id="metadata13">
    <rdf:RDF>
      <cc:Work
         rdf:about="">
        <dc:format>image/svg+xml</dc:format>
        <dc:type
           rdf:resource="http://purl.org/dc/dcmitype/StillImage" />
      </cc:Work>
    </rdf:RDF>
  </metadata>
  <defs
     id="defs11" />
  <sodipodi:namedview
     pagecolor="#ffffff"
     bordercolor="#666666"
     borderopacity="1"
     objecttolerance="10"
     gridtolerance="10"
     guidetolerance="10"
     inkscape:pageopacity="0"
     inkscape:pageshadow="2"
     inkscape:window-width="1920"
     inkscape:window-height="1028"
     id="namedview9"
     showgrid="false"
     inkscape:zoom="9.8333333"
     inkscape:cx="12"
     inkscape:cy="12"
     inkscape:window-x="0"
     inkscape:window-y="28"
     inkscape:window-maximized="1"
     inkscape:current-layer="Bold" />
  <title
     id="title2">151 double arrow right small</title>
  <path
     d="M13.1,19.5a1.5,1.5,0,0,1-1.061-2.561l4.586-4.585a.5.5,0,0,0,0-.708L12.043,7.061a1.5,1.5,0,0,1,2.121-2.122L18.75,9.525a3.505,3.505,0,0,1,0,4.95l-4.586,4.586A1.5,1.5,0,0,1,13.1,19.5Z"
     id="path4" />
  <path
     d="M6.1,19.5a1.5,1.5,0,0,1-1.061-2.561L9.982,12,5.043,7.061A1.5,1.5,0,0,1,7.164,4.939l6,6a1.5,1.5,0,0,1,0,2.122l-6,6A1.5,1.5,0,0,1,6.1,19.5Z"
     id="path6" />
  <path
     style="fill:#ffffff;stroke-width:0.10169491"
     d=""
     id="path15"
     inkscape:connector-curvature="0" />
  <path
     style="fill:#ffffff;stroke-width:0.10169491"
     d="M 5.3388354,19.230497 C 5.1597712,19.117993 4.9423983,18.888904 4.8557846,18.721412 4.6722065,18.366411 4.6494168,17.676431 4.8107425,17.357721 4.8725831,17.235551 6.0735178,15.980085 7.4794862,14.567797 L 10.035793,12 7.4794862,9.4322034 C 6.0735178,8.0199153 4.8725831,6.7644492 4.8107425,6.6422787 4.6335127,6.2921491 4.6769801,5.5785939 4.8975778,5.2168015 5.1819923,4.7503463 5.6385185,4.5430207 6.2515264,4.601923 l 0.5025901,0.048293 3.2499615,3.2426888 c 1.787479,1.7834789 3.3156,3.3662632 3.395823,3.5172992 0.08022,0.151036 0.145862,0.416444 0.145862,0.589796 0,0.173352 -0.06564,0.43876 -0.145862,0.589796 -0.08022,0.151036 -1.60946,1.734936 -3.398302,3.519778 l -3.2524418,3.245168 -0.5423752,0.04015 c -0.4170778,0.03088 -0.6175875,-0.0071 -0.8679466,-0.164399 z"
     id="path17"
     inkscape:connector-curvature="0" />
  <path
     style="fill:#ffffff;stroke-width:0.10169491"
     d="M 12.371919,19.234268 C 11.827094,18.902023 11.56063,18.303676 11.679495,17.679425 11.7313,17.407357 12.252002,16.827512 14.27216,14.79228 16.183485,12.866694 16.8,12.185271 16.8,11.998306 16.8,11.811284 16.195192,11.143319 14.317772,9.2568733 12.333375,7.2629374 11.814819,6.6858363 11.73221,6.3794045 11.565922,5.762574 11.824127,5.0997212 12.357338,4.7745994 c 0.382351,-0.2331361 0.986536,-0.2565961 1.371441,-0.053252 0.151036,0.079792 1.445626,1.3268258 2.876866,2.7711865 C 19.579926,10.49408 19.686181,10.649553 19.686181,12 c 0,1.350447 -0.106255,1.50592 -3.080536,4.507466 -1.43124,1.444361 -2.72583,2.691395 -2.876866,2.771187 -0.379845,0.200671 -0.987611,0.18079 -1.35686,-0.04438 z"
     id="path19"
     inkscape:connector-curvature="0" />
</svg>
