<?xml version="1.0" encoding="UTF-8" standalone="no"?>
<svg
   xmlns:dc="http://purl.org/dc/elements/1.1/"
   xmlns:cc="http://creativecommons.org/ns#"
   xmlns:rdf="http://www.w3.org/1999/02/22-rdf-syntax-ns#"
   xmlns:svg="http://www.w3.org/2000/svg"
   xmlns="http://www.w3.org/2000/svg"
   xmlns:sodipodi="http://sodipodi.sourceforge.net/DTD/sodipodi-0.dtd"
   xmlns:inkscape="http://www.inkscape.org/namespaces/inkscape"
   id="Bold"
   viewBox="0 0 24 24"
   version="1.1"
   sodipodi:docname="fi-br-angle-small-right.svg"
   inkscape:version="0.92.3 (2405546, 2018-03-11)">
  <metadata
     id="metadata11">
    <rdf:RDF>
      <cc:Work
         rdf:about="">
        <dc:format>image/svg+xml</dc:format>
        <dc:type
           rdf:resource="http://purl.org/dc/dcmitype/StillImage" />
      </cc:Work>
    </rdf:RDF>
  </metadata>
  <defs
     id="defs9" />
  <sodipodi:namedview
     pagecolor="#ffffff"
     bordercolor="#666666"
     borderopacity="1"
     objecttolerance="10"
     gridtolerance="10"
     guidetolerance="10"
     inkscape:pageopacity="0"
     inkscape:pageshadow="2"
     inkscape:window-width="1920"
     inkscape:window-height="1028"
     id="namedview7"
     showgrid="false"
     inkscape:zoom="9.8333333"
     inkscape:cx="12"
     inkscape:cy="12"
     inkscape:window-x="0"
     inkscape:window-y="28"
     inkscape:window-maximized="1"
     inkscape:current-layer="Bold" />
  <title
     id="title2">164 arrow small right</title>
  <path
     d="M15.75,9.525,11.164,4.939A1.5,1.5,0,0,0,9.043,7.061l4.586,4.585a.5.5,0,0,1,0,.708L9.043,16.939a1.5,1.5,0,0,0,2.121,2.122l4.586-4.586A3.505,3.505,0,0,0,15.75,9.525Z"
     id="path4" />
  <path
     style="fill:#ffffff;stroke-width:0.10169491"
     d="m 9.579661,19.351909 c -0.2371579,-0.08669 -0.6148634,-0.459382 -0.7723743,-0.762113 -0.1833675,-0.352427 -0.1821981,-0.830908 0.00288,-1.179592 0.08017,-0.151036 1.1815253,-1.304272 2.4474573,-2.562746 2.142352,-2.129732 2.59322,-2.644551 2.59322,-2.96104 0,-0.06803 -1.115714,-1.248687 -2.479366,-2.623694 C 10.007829,7.8877174 8.8408801,6.6627543 8.7782605,6.5405838 8.5219712,6.040565 8.6974719,5.3716489 9.2107478,4.8921705 9.5465977,4.5784352 10.332714,4.4858572 10.757735,4.7099874 c 0.163076,0.085996 1.42429,1.2923618 2.802697,2.6808119 C 16.559303,10.411521 16.64648,10.541726 16.64648,12 c 0,1.458274 -0.08718,1.588479 -3.086048,4.609201 -1.378407,1.38845 -2.62977,2.589721 -2.780806,2.669492 -0.271011,0.143135 -0.9031808,0.181707 -1.199965,0.07322 z"
     id="path13"
     inkscape:connector-curvature="0" />
</svg>
