<?xml version="1.0" encoding="UTF-8" standalone="no"?>
<svg
   xmlns:dc="http://purl.org/dc/elements/1.1/"
   xmlns:cc="http://creativecommons.org/ns#"
   xmlns:rdf="http://www.w3.org/1999/02/22-rdf-syntax-ns#"
   xmlns:svg="http://www.w3.org/2000/svg"
   xmlns="http://www.w3.org/2000/svg"
   xmlns:sodipodi="http://sodipodi.sourceforge.net/DTD/sodipodi-0.dtd"
   xmlns:inkscape="http://www.inkscape.org/namespaces/inkscape"
   id="Bold"
   viewBox="0 0 24 24"
   version="1.1"
   sodipodi:docname="fi-br-angle-small-left.svg"
   inkscape:version="0.92.3 (2405546, 2018-03-11)">
  <metadata
     id="metadata11">
    <rdf:RDF>
      <cc:Work
         rdf:about="">
        <dc:format>image/svg+xml</dc:format>
        <dc:type
           rdf:resource="http://purl.org/dc/dcmitype/StillImage" />
      </cc:Work>
    </rdf:RDF>
  </metadata>
  <defs
     id="defs9" />
  <sodipodi:namedview
     pagecolor="#ffffff"
     bordercolor="#666666"
     borderopacity="1"
     objecttolerance="10"
     gridtolerance="10"
     guidetolerance="10"
     inkscape:pageopacity="0"
     inkscape:pageshadow="2"
     inkscape:window-width="1920"
     inkscape:window-height="1028"
     id="namedview7"
     showgrid="false"
     inkscape:zoom="9.8333333"
     inkscape:cx="12"
     inkscape:cy="12"
     inkscape:window-x="0"
     inkscape:window-y="28"
     inkscape:window-maximized="1"
     inkscape:current-layer="Bold" />
  <title
     id="title2">165 arrow small left</title>
  <path
     d="M10.957,12.354a.5.5,0,0,1,0-.708l4.586-4.585a1.5,1.5,0,0,0-2.121-2.122L8.836,9.525a3.505,3.505,0,0,0,0,4.95l4.586,4.586a1.5,1.5,0,0,0,2.121-2.122Z"
     id="path4" />
  <path
     style="fill:#ffffff;stroke-width:0.10169491"
     d="M 13.8,19.231113 C 13.632203,19.125592 12.341733,17.878729 10.932288,16.460306 7.9747011,13.483881 7.9111644,13.390258 7.9053254,12 7.8995001,10.613023 7.9943902,10.476207 11.141773,7.3335694 l 2.687431,-2.6833798 0.502455,-0.04828 c 0.612865,-0.058888 1.069425,0.1484775 1.353814,0.6148914 0.235633,0.3864511 0.260934,1.0839217 0.0535,1.4746893 C 15.658793,6.8425263 14.514728,8.0411597 13.1966,9.3551202 11.337,11.208837 10.8,11.80147 10.8,12 c 0,0.19853 0.537,0.791163 2.396596,2.644879 1.318128,1.313961 2.462196,2.512594 2.542373,2.66363 0.207438,0.390768 0.182137,1.088238 -0.0535,1.474689 -0.378148,0.620185 -1.273356,0.832851 -1.885473,0.447915 z"
     id="path13"
     inkscape:connector-curvature="0" />
</svg>
